# xmcd
#
# Track frame offsets:
#  150
#  18896
#  35301
#  50297
#  59968
#  73440
#  86463
#  98493
#  109130
#  121291
#  132459
#  146952
#  159100
#  168115
#  180909
#  194551
#
# Disc length: 2775 seconds
#
# Revision: 0
# Processed by: cddbd v1.5.1PL2 Copyright (c) Steve Scherf et al.
# Submitted via: Collectorz.com_Music_Collector 6.9
#
DISCID=db0ad510
DTITLE=Various Artist - Country Songs [CD3]
DYEAR=2006
DGENRE=General Country
TTITLE0=The Bellamy Brothers - If I Said You Had A Beautiful
TTITLE1=Billie Jo Spears - Blanket on the Ground
TTITLE2=Frankie Lane - Sixteen's Tons
TTITLE3=Dolly Parton - Release Me
TTITLE4=Paggi Page - Tennessee Waltz
TTITLE5=Su Stevens - Love Me Tender
TTITLE6=Kenny Rogers - Ruben James
TTITLE7=Dolly Parton - It Wasn't God Who Made Honky T
TTITLE8=Tammy Wynette - Crying Inn the Rain
TTITLE9=Waylon Jennings - Big Mamou
TTITLE10=Billie Jo Spears - Sunshine
TTITLE11=Waylon Jennings - Don't Think Twice It's Allrigh
TTITLE12=Johnny Cash - Two Timin' Woman
TTITLE13=Lee Hazelwood - These Boots Are Made for Walki
TTITLE14=Glen Campell - Rhinestone Cowboy
TTITLE15=Willie Nelson - Home Is Where You're Happy
EXTD=
EXTT0=
EXTT1=
EXTT2=
EXTT3=
EXTT4=
EXTT5=
EXTT6=
EXTT7=
EXTT8=
EXTT9=
EXTT10=
EXTT11=
EXTT12=
EXTT13=
EXTT14=
EXTT15=
PLAYORDER=
